<?xml version="1.0"?>
<svg xmlns="http://www.w3.org/2000/svg" xmlns:xlink="http://www.w3.org/1999/xlink" version="1.1" id="Layer_1" x="0px" y="0px" viewBox="0 0 512 512" style="enable-background:new 0 0 512 512;" xml:space="preserve" width="512px" height="512px"><g><g transform="translate(1 1)">
	<g>
		<path d="M472.6,336.067c0-8.269-3.557-15.868-9.189-21.333c5.632-5.466,9.189-13.064,9.189-21.333    c0-16.213-13.653-29.867-29.867-29.867h-4.267v-179.2c0-30.378-22.045-55.056-51.2-59.131V7.533c0-5.12-3.413-8.533-8.533-8.533    S370.2,2.413,370.2,7.533V24.6h-59.156l-0.577-17.067c0-5.12-4.267-8.533-8.533-8.533h-51.2c-4.267,0-8.533,4.267-8.533,8.533    L241.593,24.6h-67.659c-42.667,0-76.8,34.133-76.8,76.8v17.067c0,1.707,0,3.413,0.853,4.267l24.747,41.244v31.289h-4.267    c-11.947,0-21.333,9.387-21.333,20.48V242.2c0,11.947,9.387,21.333,21.333,21.333h25.6c11.947,0,21.333-9.387,22.187-20.48V216.6    c0-11.947-9.387-21.333-21.333-21.333h-5.12v-31.289l24.747-41.244c0.853-0.853,0.853-2.56,0.853-4.267V101.4    c0-5.12,3.413-8.533,8.533-8.533h65.23L229.749,357.4H63.853c-14.507,0-26.453,11.947-26.453,27.307v14.507    c0,14.507,11.947,26.453,26.453,26.453h16.213v76.8c0,5.12,3.413,8.533,8.533,8.533c4.267,0,8.533-3.413,8.533-8.533v-76.8H227.32    l-2.186,61.44c0,5.973,2.56,12.8,6.827,17.067c4.267,4.267,10.24,6.827,17.067,6.827h54.613c5.973,0,11.947-2.56,16.213-6.827    c5.12-4.267,6.827-10.24,6.827-17.067l-13.328-394.24h6.502c3.413,25.6,23.893,46.933,50.347,50.347v120.32h-4.267    c-16.213,0-29.867,13.653-29.867,29.867c0,8.269,3.557,15.868,9.189,21.333c-5.632,5.466-9.189,13.064-9.189,21.333    s3.557,15.868,9.189,21.333c-5.632,5.466-9.189,13.064-9.189,21.333c0,16.213,13.653,29.867,29.867,29.867h76.8    c16.213,0,29.867-13.653,29.867-29.867c0-8.269-3.557-15.868-9.189-21.333C469.043,351.934,472.6,344.336,472.6,336.067z     M149.187,215.747V242.2c0,2.56-1.707,4.267-4.267,4.267h-26.453c-2.56,0-4.267-1.707-4.267-3.413V216.6    c0-2.56,1.707-4.267,4.267-4.267v-0.853h8.765c1.169,0.55,2.525,0.853,4.035,0.853c1.258,0,2.513-0.304,3.662-0.853h9.992    C147.48,211.48,149.187,213.187,149.187,215.747z M148.333,101.4v14.507l-17.067,28.16l-17.067-28.16V101.4    c0-33.28,26.453-59.733,59.733-59.733h66.56L239.64,75.8h-65.707C159.427,75.8,148.333,86.893,148.333,101.4z M54.467,398.36    v-14.507c0-5.12,4.267-9.387,9.387-9.387h164.693l-0.853,34.133H63.853C58.733,408.6,54.467,404.333,54.467,398.36z     M378.733,84.333c4.267,0,8.533-3.413,8.533-8.533v-6.212c5.086,2.963,8.533,8.466,8.533,14.746    c0,9.387-7.68,17.067-17.067,17.067s-17.067-7.68-17.067-17.067c0-6.28,3.447-11.782,8.533-14.746V75.8    C370.2,80.92,373.613,84.333,378.733,84.333z M307.907,492.227c-0.853,0.853-2.56,1.707-4.267,1.707h-54.613    c-1.707,0-3.413,0-4.267-1.707s-1.707-3.413-1.707-5.12l16.213-471.04H293.4l16.213,471.04    C309.613,489.667,308.76,491.373,307.907,492.227z M378.733,127c-23.893,0-42.667-18.773-42.667-42.667    c0-5.12-3.413-8.533-8.533-8.533h-14.759l-1.154-34.133H370.2v9.621c-14.679,3.814-25.6,17.216-25.6,33.046    c0,18.773,15.36,34.133,34.133,34.133s34.133-15.36,34.133-34.133c0-15.829-10.921-29.232-25.6-33.046v-8.796    c19.681,3.86,34.133,20.878,34.133,41.841v179.2h-34.133v-128C387.267,130.413,383.853,127,378.733,127z M353.133,293.4    c0-6.827,5.973-12.8,12.8-12.8h12.8h51.2h12.8c6.827,0,12.8,5.973,12.8,12.8s-5.973,12.8-12.8,12.8h-76.8    C359.107,306.2,353.133,300.227,353.133,293.4z M455.533,378.733c0,6.827-5.973,12.8-12.8,12.8h-76.8    c-6.827,0-12.8-5.973-12.8-12.8s5.973-12.8,12.8-12.8h76.8C449.56,365.933,455.533,371.907,455.533,378.733z M365.933,348.867    c-6.827,0-12.8-5.973-12.8-12.8s5.973-12.8,12.8-12.8h76.8c6.827,0,12.8,5.973,12.8,12.8s-5.973,12.8-12.8,12.8H365.933z" data-original="#000000" class="active-path" data-old_color="#000000" fill="#FFFFFF"/>
	</g>
</g></g> </svg>
