<?xml version="1.0"?>
<svg xmlns="http://www.w3.org/2000/svg" height="512px" viewBox="0 -32 480.00343 480" width="512px"><g><path d="m472 320.003906h-4.488281l-56.535157-176h37.023438c2.78125.015625 5.367188-1.414062 6.835938-3.773437 1.46875-2.363281 1.605468-5.316407.363281-7.800781l-14.679688-29.363282 18.464844-73.839844c3.148437-12.601562-4.511719-25.371093-17.117187-28.523437-12.601563-3.148437-25.371094 4.511719-28.523438 17.117187l-19.582031 78.183594h-89.761719c-2.78125-.015625-5.367188 1.414063-6.835938 3.773438-1.46875 2.363281-1.605468 5.316406-.363281 7.800781l10.253907 20.425781h-37.109376c-10.769531-.007812-19.953124 7.800782-21.675781 18.429688-1.726562 10.632812 4.519531 20.941406 14.738281 24.339844l62.464844 20.796874c4.195313 1.398438 8.730469-.875 10.128906-5.070312 1.394532-4.199219-.875-8.730469-5.074218-10.128906l-62.457032-20.800782c-2.738281-.9375-4.40625-3.710937-3.941406-6.574218.460938-2.859375 2.917969-4.96875 5.816406-4.992188h76.222657l56.535156 176h-10.703125c-2.121094 0-4.15625.84375-5.65625 2.34375l-16 16c-1.5 1.5-2.34375 3.535156-2.34375 5.65625v8h-336c-17.671875 0-32 14.328125-32 32s14.328125 32 32 32h416c3.046875.015625 5.839844-1.699218 7.199219-4.425781l24-48c.511719-1.042969.785156-2.1875.800781-3.351563.003906-.074218.003906-.148437 0-.222656v-32c0-4.417968-3.582031-8-8-8zm-43.199219-298.304687c1.105469-3.914063 5.121094-6.238281 9.066407-5.253907 3.949218.984376 6.398437 4.929688 5.53125 8.902344l-17.644532 70.65625h-15.507812zm-103.855469 106.304687-8-16h110.109376l8 16zm38.023438 16h31.199219l56.535156 176h-31.199219zm32.34375 192h68.6875v16h-80v-4.6875zm-59.3125 48v16h-276.449219c1.464844-2.503906 2.578125-5.195312 3.3125-8h17.136719v-16h-17.136719c-.734375-2.804687-1.847656-5.496094-3.3125-8h292.449219l-12.800781 9.601563c-2.011719 1.507812-3.199219 3.878906-3.199219 6.398437zm-320 0c0-8.835937 7.164062-16 16-16s16 7.164063 16 16c0 8.835938-7.164062 16-16 16s-16-7.164062-16-16zm336 16v-12l26.664062-20h80.390626l-16 32zm0 0" data-original="#000000" class="active-path" data-old_color="#000000" fill="#26275F"/><path d="m72 320.003906h16v16h-16zm0 0" data-original="#000000" class="active-path" data-old_color="#000000" fill="#26275F"/><path d="m104 320.003906h32v16h-32zm0 0" data-original="#000000" class="active-path" data-old_color="#000000" fill="#26275F"/><path d="m152 320.003906h56v16h-56zm0 0" data-original="#000000" class="active-path" data-old_color="#000000" fill="#26275F"/><path d="m256 320.003906h16v16h-16zm0 0" data-original="#000000" class="active-path" data-old_color="#000000" fill="#26275F"/><path d="m288 320.003906h16v16h-16zm0 0" data-original="#000000" class="active-path" data-old_color="#000000" fill="#26275F"/><path d="m96 376.003906h16v16h-16zm0 0" data-original="#000000" class="active-path" data-old_color="#000000" fill="#26275F"/></g> </svg>
