<svg height="480pt" viewBox="-145 0 480 480" width="480pt" xmlns="http://www.w3.org/2000/svg"><path d="m95.277344 184c-48.601563 0-88-39.398438-88-88s39.398437-88 88-88c48.597656 0 88 39.398438 88 88-.058594 48.578125-39.425782 87.941406-88 88zm-24-136c-13.257813 0-24 10.746094-24 24s10.742187 24 24 24c13.253906 0 24-10.746094 24-24s-10.746094-24-24-24zm0 0" fill="#78b9eb"/><g fill="#1a6fb0"><path d="m95.277344 0c-51.179688.386719-93.058594 40.855469-95.1953128 91.992188-2.1328122 51.136718 36.2226568 94.957031 87.1953128 99.609374v288.398438h16v-288.398438c50.96875-4.652343 89.324218-48.472656 87.191406-99.609374-2.136719-51.136719-44.011719-91.605469-95.191406-91.992188zm0 176c-44.183594 0-80-35.816406-80-80s35.816406-80 80-80c44.179687 0 80 35.816406 80 80-.074219 44.152344-35.847656 79.929688-80 80zm0 0"/><path d="m71.277344 48c-13.257813 0-24 10.746094-24 24s10.742187 24 24 24c13.253906 0 24-10.746094 24-24s-10.746094-24-24-24zm0 40c-8.839844 0-16-7.164062-16-16s7.160156-16 16-16c8.835937 0 16 7.164062 16 16-.027344 8.824219-7.175782 15.972656-16 16zm0 0"/><path d="m71.277344 40c-17.675782 0-32 14.328125-32 32s14.324218 32 32 32c17.671875 0 32-14.328125 32-32s-14.328125-32-32-32zm0 56c-13.257813 0-24-10.746094-24-24s10.742187-24 24-24c13.253906 0 24 10.746094 24 24s-10.746094 24-24 24zm0 0"/></g></svg>