<?xml version="1.0"?>
<svg xmlns="http://www.w3.org/2000/svg" xmlns:xlink="http://www.w3.org/1999/xlink" version="1.1" id="Capa_1" x="0px" y="0px" viewBox="0 0 461.327 461.327" style="enable-background:new 0 0 461.327 461.327;" xml:space="preserve" width="512px" height="512px"><g><g>
	<g>
		<path d="M263.6,353.663H248l-29.6-20c4.4-8.8,7.2-18.4,7.2-28.8c0-34-28-62-62-62s-62,28-62,62s28,62,62,62c19.2,0,36-8.8,47.6-22    l13.6,9.2H220c-3.6,0-6.4,2.8-6.4,6.4c0,3.6,2.8,6.4,6.4,6.4h44c3.6,0,6.4-2.8,6.4-6.4C270.4,356.863,267.2,353.663,263.6,353.663    z M207.2,326.463l-40-26.8c-3.2-2-7.2-1.2-9.2,1.6c-2,3.2-1.2,7.2,1.6,9.2l40,26.8c-8.4,10-21.6,16.4-36,16.4    c-26.8,0-48.8-22-48.8-48.8s22-48.8,48.8-48.8s48.8,22,48.8,48.8C212.4,312.463,210.4,320.063,207.2,326.463z" data-original="#000000" class="active-path" data-old_color="#000000" fill="#642E64"/>
	</g>
</g><g>
	<g>
		<path d="M461.2,43.663c-0.8-3.6-3.6-5.6-6.8-5.6H309.6c-3.6,0-6.4,2.8-6.4,6.4c0,3.6,2.8,6.4,6.4,6.4h135.2    c-2,3.6-4.8,9.2-9.6,16.8c-14,22.8-30.4,21.6-30.8,21.6c-0.4,0-0.4,0-0.8,0h-40.8c-2.8,0-5.6,2-6.4,4.8l-30.8,120    c-3.6-0.4-7.6-0.8-11.2-0.8h-142l-32.8-80h32.8c12.8,0,23.2-10.4,23.2-23.2s-10.4-23.2-23.2-23.2h-78c-12.8,0-23.2,10.4-23.2,23.2    s10.4,23.2,23.2,23.2h30.8l32.8,80h-12.8c-47.6,0-86,41.2-86,91.6c0,50.8,38.8,91.6,86,91.6h169.2c47.6,0,86-41.2,86-91.6    c0-41.6-26-76.8-62-88l29.6-114.4h35.2c4,0.4,26,0.8,43.2-27.6C462,48.863,461.6,45.663,461.2,43.663z M94.4,120.063    c-5.6,0-10-4.4-10-10c0-5.6,4.4-10,10-10H172c5.6,0,10,4.4,10,10c0,5.6-4.4,10-10,10H94.4z M387.2,304.863    c0,43.2-32.8,78.8-72.8,78.8H145.2c-40.4,0-72.8-35.2-72.8-78.8c0-43.2,32.8-78.8,72.8-78.8h169.2    C354.4,226.063,387.2,261.663,387.2,304.863z" data-original="#000000" class="active-path" data-old_color="#000000" fill="#642E64"/>
	</g>
</g><g>
	<g>
		<path d="M454.4,410.463H6.4c-3.6,0-6.4,2.8-6.4,6.4c0,3.6,2.8,6.4,6.4,6.4h448c3.6,0,6.4-2.8,6.4-6.4    C461.2,413.663,458,410.463,454.4,410.463z" data-original="#000000" class="active-path" data-old_color="#000000" fill="#642E64"/>
	</g>
</g><g>
	<g>
		<path d="M318.8,243.263H258c-3.6-0.4-6.4,2.8-6.4,6.4s2.8,6.4,6.4,6.4h60.8c3.6,0,6.4-2.8,6.4-6.4    C325.2,246.063,322.4,243.263,318.8,243.263z" data-original="#000000" class="active-path" data-old_color="#000000" fill="#642E64"/>
	</g>
</g></g> </svg>
